<svg width="35" height="35" viewBox="0 0 35 35" fill="none" xmlns="http://www.w3.org/2000/svg">
<path d="M29.8258 11.4158C29.6823 11.5057 26.2663 13.4015 26.2663 17.605C26.4273 22.3988 30.5772 24.08 30.6483 24.08C30.5772 24.1698 30.0218 26.3702 28.3768 28.6767C27.0713 30.6635 25.6223 32.6667 23.422 32.6667C21.329 32.6667 20.5777 31.3425 18.1627 31.3425C15.5692 31.3425 14.8353 32.6667 12.8497 32.6667C10.6493 32.6667 9.093 30.5562 7.71633 28.588C5.92783 26.012 4.40767 21.9695 4.354 18.088C4.31783 16.0312 4.71217 14.0093 5.71317 12.292C7.126 9.8945 9.64833 8.267 12.4028 8.21333C14.5133 8.14216 16.3917 9.66233 17.6797 9.66233C18.914 9.66233 21.2217 8.21333 23.8327 8.21333C24.9597 8.2145 27.965 8.554 29.8258 11.4158ZM17.5012 7.80266C17.1255 5.92433 18.1627 4.046 19.1287 2.84783C20.363 1.39883 22.3125 0.415329 23.9937 0.415329C24.101 2.29366 23.4208 4.13583 22.2052 5.4775C21.1143 6.9265 19.236 8.01733 17.5012 7.80266Z" fill="#7E7171"/>
</svg>
